<svg width="673" height="902" viewBox="0 0 673 902" fill="none" xmlns="http://www.w3.org/2000/svg">
<path d="M0 20C0 8.95429 8.95431 0 20 0H673V902H20C8.95431 902 0 893.046 0 882V20Z" fill="#03254C"/>
<mask id="mask0" mask-type="alpha" maskUnits="userSpaceOnUse" x="509" y="265" width="329" height="372">
<circle cx="673.268" cy="429.268" r="123" transform="rotate(64.205 673.268 429.268)" fill="#1167B1" fill-opacity="0.7"/>
<ellipse cx="686.989" cy="523.152" rx="83.5" ry="87.5" transform="rotate(64.205 686.989 523.152)" fill="#1167B1" fill-opacity="0.5"/>
</mask>
<g mask="url(#mask0)">
<rect x="391" y="197" width="282" height="424" fill="#0D5393"/>
</g>
<mask id="mask1" mask-type="alpha" maskUnits="userSpaceOnUse" x="0" y="0" width="673" height="902">
<path d="M0 20C0 8.95429 8.95431 0 20 0H673V902H20C8.95431 902 0 893.046 0 882V20Z" fill="#03254C"/>
</mask>
<g mask="url(#mask1)">
<circle cx="-24.5" cy="813.5" r="197.5" fill="#1167B1" fill-opacity="0.7"/>
<ellipse cx="132" cy="884.5" rx="134" ry="140.5" fill="#1167B1" fill-opacity="0.5"/>
</g>
</svg>
